HIERARCHY
ROOT Bip001_Pelvis
{
  OFFSET 34.4345 95.6767 -26.8758
  CHANNELS 6 Xposition Yposition Zposition Zrotation Xrotation Yrotation
  JOINT Bip001_Spine
  {
    OFFSET 1.4188e-005 10.2191 -0.0116013
    CHANNELS 3 Zrotation Xrotation Yrotation
    JOINT Bip001_L_Thigh
    {
      OFFSET 11.0458 -10.2192 0.0116197
      CHANNELS 3 Zrotation Xrotation Yrotation
      JOINT Bip001_L_Calf
      {
        OFFSET -0.707118 -44.0221 0.360014
        CHANNELS 3 Zrotation Xrotation Yrotation
        JOINT Bip001_L_Foot
        {
          OFFSET -0.651902 -40.5938 -3.56146
          CHANNELS 3 Zrotation Xrotation Yrotation
          JOINT Bip001_L_Toe0
          {
            OFFSET 0.0530839 -10.2181 13.1504
            CHANNELS 3 Zrotation Xrotation Yrotation
            End Site
            {
              OFFSET -1.02532e-005 0 7.55606
            }
          }
        }
      }
    }
    JOINT Bip001_R_Thigh
    {
      OFFSET -11.0458 -10.2191 0.0115893
      CHANNELS 3 Zrotation Xrotation Yrotation
      JOINT Bip001_R_Calf
      {
        OFFSET 0.706994 -44.0221 0.35984
        CHANNELS 3 Zrotation Xrotation Yrotation
        JOINT Bip001_R_Foot
        {
          OFFSET 0.651786 -40.5938 -3.5613
          CHANNELS 3 Zrotation Xrotation Yrotation
          JOINT Bip001_R_Toe0
          {
            OFFSET -0.0531479 -10.2181 13.1504
            CHANNELS 3 Zrotation Xrotation Yrotation
            End Site
            {
              OFFSET -1.02894e-005 0 7.55606
            }
          }
        }
      }
    }
    JOINT Bip001_Spine1
    {
      OFFSET 1.87041e-005 14.5736 1.08638
      CHANNELS 3 Zrotation Xrotation Yrotation
      JOINT Bip001_Spine2
      {
        OFFSET 2.24614e-005 14.5058 -1.69078
        CHANNELS 3 Zrotation Xrotation Yrotation
        JOINT Bip001_Neck
        {
          OFFSET 2.20278e-005 15.3945 -0.489414
          CHANNELS 3 Zrotation Xrotation Yrotation
          JOINT Bip001_L_Clavicle
          {
            OFFSET 6.06036 -0.000579998 0.00836775
            CHANNELS 3 Zrotation Xrotation Yrotation
            JOINT Bip001_L_UpperArm
            {
              OFFSET 11.5509 -0.0600302 0.00193952
              CHANNELS 3 Zrotation Xrotation Yrotation
              JOINT Bip001_L_Forearm
              {
                OFFSET 25.9523 0.0806089 -2.15551
                CHANNELS 3 Zrotation Xrotation Yrotation
                JOINT Bip001_L_Hand
                {
                  OFFSET 32.2475 0.153767 1.63968
                  CHANNELS 3 Zrotation Xrotation Yrotation
                  JOINT Bip001_L_Finger0
                  {
                    OFFSET 6.04639 -2.20976 5.90322
                    CHANNELS 3 Zrotation Xrotation Yrotation
                    End Site
                    {
                      OFFSET 4.22375 -1.43895 0.606485
                    }
                  }
                  JOINT Bip001_L_Finger1
                  {
                    OFFSET 11.0826 -0.704819 -0.198153
                    CHANNELS 3 Zrotation Xrotation Yrotation
                    End Site
                    {
                      OFFSET 6.20027 -0.397518 -0.0787166
                    }
                  }
                }
              }
            }
          }
          JOINT Bip001_R_Clavicle
          {
            OFFSET -6.06037 -0.000563197 0.00835105
            CHANNELS 3 Zrotation Xrotation Yrotation
            JOINT Bip001_R_UpperArm
            {
              OFFSET -11.5509 -0.0599978 0.00190698
              CHANNELS 3 Zrotation Xrotation Yrotation
              JOINT Bip001_R_Forearm
              {
                OFFSET -25.9523 0.0806822 -2.15589
                CHANNELS 3 Zrotation Xrotation Yrotation
                JOINT Bip001_R_Hand
                {
                  OFFSET -32.2475 0.153859 1.63989
                  CHANNELS 3 Zrotation Xrotation Yrotation
                  JOINT Bip001_R_Finger0
                  {
                    OFFSET -6.04641 -2.20976 5.90317
                    CHANNELS 3 Zrotation Xrotation Yrotation
                    End Site
                    {
                      OFFSET -4.22376 -1.43895 0.60647
                    }
                  }
                  JOINT Bip001_R_Finger1
                  {
                    OFFSET -11.0826 -0.704794 -0.198182
                    CHANNELS 3 Zrotation Xrotation Yrotation
                    End Site
                    {
                      OFFSET -6.20028 -0.397504 -0.0787333
                    }
                  }
                }
              }
            }
          }
          JOINT Bip001_Head
          {
            OFFSET 1.09673e-005 11.2744 2.05948
            CHANNELS 3 Zrotation Xrotation Yrotation
            End Site
            {
              OFFSET 2.89576e-005 20.8808 -2.77728e-005
            }
          }
        }
      }
    }
  }
}
MOTION
Frames:	12
Frame Time:	0.04
34.9558 95.7508 -28.6497 -1.19157 -0.756952 -8.24857 0.218335 2.41961 -0.236408 4.35933 0.18296 11.3589 1.01189 8.32007 6.42521 0.731751 -6.42806 0.0672753 1.79362 -4.22547 -1.39174 -4.46125 -3.93567 -1.14785 0.0194632 10.0764 1.04258 -4.86888 -7.78169 3.55253 2.37424 -8.4257 3.08043 0.453153 4.83826 -0.482831 0.453154 4.83828 -0.482836 2.89632 -10.1626 0.126581 -26.8865 12.6686 -3.8548 -47.9582 37.5606 -4.53243 16.7998 2.14417 -34.0328 9.3381 1.64861 -5.78075 -3.18055e-015 1.59028e-015 -0 -3.18055e-015 0 -0 23.2041 12.1908 1.43984 57.6866 -2.86082 1.45486 -20.5492 50.2928 21.8304 2.24055 -7.17777 23.3086 3.18055e-015 3.18055e-015 -3.18055e-015 1.59028e-015 3.18056e-015 -4.77083e-015 -1.66557 2.84096 1.13255 
35.1652 95.73 -28.7994 -1.13565 -0.838699 -7.92155 0.203706 2.45121 -0.288771 4.35989 -0.1344 10.8989 0.807766 8.80294 6.88275 0.304982 -6.99198 0.0673533 1.68291 -3.75439 -1.34425 -4.63267 -3.99913 -0.951777 0.116805 10.1841 1.03948 -5.03567 -7.73587 3.15745 2.40826 -8.53652 3.11649 0.420364 4.90133 -0.587076 0.420365 4.90134 -0.587082 2.68495 -10.7522 0.448742 -26.4736 13.4434 -4.2524 -48.1134 38.6293 -4.28703 17.8851 5.09092 -32.214 5.89264 1.76751 -4.97094 -3.18055e-015 -1.59028e-015 2.38542e-015 -3.18055e-015 -3.18056e-015 3.97569e-015 23.7674 12.834 1.58321 56.0828 -3.58189 1.38341 -20.4083 49.2348 22.4063 -0.420392 -6.95496 24.1742 7.95139e-015 -3.18055e-015 -3.18055e-015 4.77083e-015 -9.54167e-015 -0 -1.39204 3.98283 1.31726 
35.2888 95.699 -28.8921 -1.04346 -0.951404 -7.58214 0.176285 2.49331 -0.323242 4.39751 -0.419078 11.0308 0.68243 9.35645 6.5911 -0.309076 -7.68856 0.0639627 1.38595 -3.13423 -1.15799 -4.73383 -4.06463 -0.844471 0.0923315 10.4379 1.02763 -5.20076 -7.79242 2.86427 2.46033 -8.65877 3.11816 0.36721 4.98558 -0.655314 0.367185 4.98557 -0.655109 2.30436 -11.0638 0.649685 -25.9213 13.7924 -4.26384 -48.0949 39.8315 -4.47967 18.0977 6.96971 -30.2816 3.73467 2.54282 -4.50473 -3.31043e-032 -2.38542e-015 -7.95139e-016 -1.10348e-032 -7.95139e-016 -7.95139e-016 24.5335 12.9657 1.03653 54.4313 -3.69235 0.60854 -21.5117 46.3335 23.8602 2.08985 -3.1895 25.8166 -3.53112e-031 -6.36111e-015 -3.18055e-015 -3.18055e-015 -6.36111e-015 -0 -0.980144 4.20947 1.32022 
35.3483 95.6725 -28.9639 -1.03163 -0.996015 -7.29131 0.154886 2.52875 -0.333931 4.59293 -0.687458 11.3192 0.491194 9.84519 6.06443 -0.997793 -8.36332 0.04808 0.932724 -2.68382 -0.846131 -4.67507 -4.08078 -0.888169 -0.052474 10.523 1.05418 -5.30689 -7.8133 2.71919 2.51442 -8.80676 3.14924 0.324935 5.05654 -0.673979 0.324933 5.05653 -0.674008 2.15053 -11.0258 0.787008 -25.6009 13.81 -4.4075 -48.2691 40.4544 -4.20499 17.768 7.34572 -28.8402 2.66847 2.87907 -3.59008 -6.36111e-015 0 3.18055e-015 -6.36111e-015 0 3.97569e-015 24.9715 12.5947 0.0282006 52.8949 -3.34494 -1.12611 -23.1582 43.0914 26.0368 5.31025 0.408674 27.2137 -4.77083e-015 -3.18055e-015 1.59028e-015 -4.77083e-015 -3.18056e-015 -0 -0.866224 3.90953 1.39532 
35.4139 95.6481 -28.9876 -0.928209 -1.13322 -7.19969 0.107895 2.58008 -0.348672 4.54637 -0.602304 11.4576 0.292323 9.74045 5.7674 -0.0453737 -7.98128 0.0640198 1.29598 -3.21013 -1.06465 -4.792 -4.0187 -0.821393 -0.0411055 10.5752 1.04136 -5.38034 -7.92506 2.64516 2.57528 -9.0046 3.23239 0.231875 5.15945 -0.703279 0.231877 5.15946 -0.703295 1.69799 -11.0349 1.15009 -24.9135 13.941 -4.6573 -49.0601 40.8077 -3.26506 17.2074 6.28514 -27.2347 3.20132 2.78141 -2.79968 -6.36111e-015 4.77083e-015 7.95139e-016 -6.36111e-015 4.77083e-015 1.59028e-015 25.3656 12.1968 -1.00912 52.1041 -3.35734 -4.21118 -26.0369 38.9437 29.5999 6.05126 -0.0721256 26.5051 -3.18055e-015 0 1.59028e-015 -6.36111e-015 -3.18056e-015 4.77083e-015 -0.346298 3.95863 1.51651 
35.4682 95.5951 -29.0355 -0.85398 -1.23199 -6.89794 0.0865009 2.60392 -0.433008 4.52506 -0.769151 10.4631 0.0474386 10.0611 6.38124 0.358903 -8.08935 0.0701814 1.26526 -3.4223 -0.93642 -4.91769 -3.99659 -1.14926 -0.040589 10.7703 1.10744 -5.42822 -8.1705 2.71458 2.64815 -9.25452 3.35285 0.193239 5.20707 -0.87199 0.193021 5.20708 -0.871651 1.05648 -11.1703 1.56589 -23.893 14.1528 -4.80512 -50.1432 41.054 -2.20736 15.7152 3.5657 -25.4103 5.36306 2.32527 -3.23731 3.18055e-015 -3.18055e-015 -1.59028e-015 3.18055e-015 0 -3.18055e-015 25.7434 11.6966 -2.69532 52.8216 -3.43963 -7.87859 -32.267 32.2301 33.9702 4.88826 -0.589631 24.7926 9.54166e-015 3.18055e-015 -0 9.54166e-015 6.36111e-015 -0 0.358045 4.40612 1.59578 
35.4147 95.4925 -29.0884 -0.883828 -1.27072 -7.1127 0.0544016 2.55641 -0.35961 4.89195 -1.0521 12.9305 -0.0793113 10.9657 3.64507 1.87846 -7.98619 0.0745947 1.55913 -4.26357 -1.04239 -4.7902 -4.26397 -0.436166 0.0165726 11.4089 1.20913 -5.71495 -8.45772 2.11194 2.72625 -9.50522 3.4595 0.12194 5.11245 -0.722738 0.124123 5.11246 -0.722717 0.984821 -11.2188 1.64565 -23.3481 14.2203 -4.98497 -52.0118 40.6087 0.191164 14.7411 0.489136 -24.6638 6.68502 1.62126 -4.05269 0 0 -3.18055e-015 0 0 -3.18055e-015 25.8743 11.0147 -4.92428 53.5758 -4.84221 -12.2926 -39.4354 24.615 40.4996 -0.691815 -4.71034 21.5514 -3.53112e-031 6.36111e-015 3.18055e-015 -1.59028e-015 3.18056e-015 3.18055e-015 0.681618 4.90891 1.55716 
35.284 95.4163 -29.1899 -1.04016 -1.14028 -6.36777 0.0664527 2.46771 -0.499717 5.50666 -1.72517 12.7549 -0.492586 12.0835 3.10173 2.17482 -8.49734 0.0964424 1.57292 -4.43217 -0.989963 -4.44813 -4.31277 -0.378138 -0.0317352 11.6689 1.18631 -5.99692 -8.59082 1.52174 2.79356 -9.71849 3.54603 0.156363 4.93478 -1.00364 0.153893 4.93479 -1.00365 1.89031 -10.0498 1.85755 -23.5944 13.2169 -5.76551 -54.3003 39.3837 3.41681 14.2572 -1.99798 -25.3341 7.10947 1.5972 -2.61288 0 3.18055e-015 -0 -3.18055e-015 3.18056e-015 1.59028e-015 25.0553 9.19808 -6.82287 53.7544 -8.99237 -16.0254 -45.865 17.6951 49.697 -10.4497 -7.76629 16.2501 3.18055e-015 0 -0 1.59028e-015 -1.59028e-015 -3.18055e-015 -0.427837 3.45732 2.26769 
35.1533 95.3598 -29.2237 -1.15974 -1.04215 -5.64011 0.171404 2.37473 -0.721161 5.80261 -2.16604 11.5488 -0.877771 12.7632 3.50052 2.50126 -8.70321 0.105272 1.53636 -4.68274 -0.837907 -4.2983 -4.21232 -0.60768 -0.0390098 11.7465 1.07284 -6.15472 -8.75782 1.25321 2.86765 -9.93112 3.61591 0.37157 4.74708 -1.45137 0.373208 4.74708 -1.45132 2.43793 -9.1338 2.33908 -23.6685 12.4195 -6.23213 -56.616 38.6664 6.23574 13.927 -3.31 -25.71 7.64713 1.23183 -2.33449 3.18055e-015 -3.18055e-015 3.18055e-015 6.36111e-015 -3.18056e-015 1.59028e-015 24.2243 7.83406 -8.02629 50.7328 -20.8651 -20.7895 -51.5982 10.2072 64.5534 -14.6038 -8.81689 13.5261 4.96962e-015 -4.96962e-016 -3.18055e-015 8.84592e-015 -4.96962e-016 -3.18055e-015 -1.973 2.26376 3.23696 
35.0156 95.2675 -29.3241 -1.20213 -1.0031 -4.81359 0.334251 2.28713 -0.932768 5.77884 -2.79414 11.7266 -0.539194 13.7019 2.01471 3.05426 -8.81771 0.113869 1.36196 -4.98063 -0.353447 -4.25748 -4.42745 0.0242937 0.109341 12.49 0.750003 -6.44168 -8.98798 0.253313 2.92939 -10.0985 3.65355 0.706599 4.56846 -1.88112 0.706601 4.56846 -1.88112 2.91699 -8.20441 2.67354 -24.0103 11.6151 -6.56059 -58.5407 38.5815 8.41215 13.7022 -3.76957 -25.56 7.4574 1.09435 -2.18991 0 0 -0 -3.18055e-015 0 -0 23.2758 6.9304 -7.86425 42.5238 -38.1487 -28.3674 -46.51 4.10233 84.7402 -17.2959 -9.00487 11.9812 -3.18055e-015 9.54166e-015 -6.36111e-015 -1.59028e-015 7.95139e-015 -3.18055e-015 -3.8363 1.39158 4.11236 
34.7439 95.1743 -29.5232 -1.54587 -0.679551 -3.51964 0.477466 2.13215 -1.06668 6.41365 -3.94281 10.6798 -0.937669 14.9544 1.00504 5.0736 -8.08831 0.117902 1.29124 -5.74705 -0.130423 -3.68903 -4.62917 0.582687 0.169744 12.8378 0.225527 -6.86369 -8.86906 -1.13537 3.05123 -10.3462 3.6196 0.998143 4.25489 -2.15459 0.996956 4.25491 -2.15423 4.39005 -6.85432 2.34154 -24.6961 10.1851 -6.83911 -60.7143 39.161 10.0361 14.1583 -2.94616 -24.763 6.49002 0.91468 -1.98518 3.18055e-015 0 3.18055e-015 6.36111e-015 -3.18056e-015 3.18055e-015 21.4897 6.06094 -6.52905 35.392 -47.6908 -33.2802 -42.7249 -2.60807 99.1485 -19.7211 -10.5713 10.344 0 3.18055e-015 -0 -3.18055e-015 6.36111e-015 3.18055e-015 -6.32221 0.061973 4.71152 
34.7212 95.1192 -29.6323 -1.55381 -0.175932 -1.84809 0.401242 1.97738 -1.10842 6.78374 -5.00062 8.33629 -1.78261 15.4165 1.12392 6.73016 -7.12198 0.0857502 1.2352 -6.48654 0.0951203 -3.70104 -4.86026 -0.687471 0.408286 13.0987 0.0506557 -7.01692 -8.99608 -1.64712 3.07361 -10.4317 3.66935 0.840006 3.94658 -2.23644 0.840536 3.94657 -2.2318 5.94345 -5.90171 1.58984 -25.6449 8.88766 -6.34777 -61.5375 40.5368 10.9821 15.1226 -1.31037 -24.4807 5.2242 1.10771 -1.83715 -6.36111e-015 -3.18055e-015 -0 -6.36111e-015 -3.18056e-015 1.59028e-015 19.2864 6.17943 -3.33578 30.9816 -57.3741 -33.4564 -35.6152 -5.57641 109.359 -20.2226 -9.97631 9.52276 -9.54166e-015 -3.18055e-015 -0 -9.54166e-015 3.18056e-015 3.18055e-015 -7.93505 -0.843264 4.71722 
